<svg width="580" height="400" xmlns="http://www.w3.org/2000/svg">
    <path stroke="#000" transform="rotate(-90 290.2222290039063,199.89288330078128)"
          d="m90.865105,488.68654l0,-577.587327l398.714262,577.587327l-398.714262,0z" stroke-width="1.5"
          fill="#f4f484"/>
    <path stroke="#000"
          d="m285.881255,287.402811l58.129232,-39.776419l0,19.888216l41.982223,0l0,-28.727414l-29.064625,0l58.129232,-39.776419l58.129224,39.776419l-29.064607,0l0,28.727414l41.982241,0l0,-19.888216l58.129206,39.776419l-58.129206,39.776413l0,-19.888204l-41.982241,0l0,28.727426l29.064607,0l-58.129224,39.776401l-58.129232,-39.776401l29.064625,0l0,-28.727426l-41.982223,0l0,19.888204l-58.129232,-39.776413z"
          fill-opacity="0" stroke-opacity="null" stroke-width="1.5" fill="#000000"/>
</svg>
